<svg id="Layer_1" data-name="Layer 1" xmlns="http://www.w3.org/2000/svg" xmlns:xlink="http://www.w3.org/1999/xlink" viewBox="0 0 100 100"><defs><style>.cls-1{fill:#fff;}.cls-2{fill:url(#linear-gradient);}.cls-3{fill:url(#linear-gradient-2);}</style><linearGradient id="linear-gradient" x1="5.34" y1="28" x2="88.94" y2="97.28" gradientUnits="userSpaceOnUse"><stop offset="0" stop-color="#63003e"/><stop offset="0.26" stop-color="#c2027c"/><stop offset="0.55" stop-color="#63003e"/><stop offset="0.79" stop-color="#c2027c"/><stop offset="1" stop-color="#63003e"/></linearGradient><linearGradient id="linear-gradient-2" x1="31.39" y1="-3.43" x2="114.99" y2="65.85" xlink:href="#linear-gradient"/></defs><rect class="cls-1" width="100" height="100"/><path class="cls-2" d="M21.9,93.19a10.77,10.77,0,0,1-3.36-4.57,15.61,15.61,0,0,1-1.09-5.71,8.37,8.37,0,0,1,1-4.41,5.72,5.72,0,0,1,2.18-2.22,4.54,4.54,0,0,1,1.76-.59q.42,0,.42.84,0,13.1,8.4,13.1,6,0,9.32-7.14a44,44,0,0,0,2.35-7q1.09-4.2,2.94-13.09c.5-2.41.78-3.78.84-4.12l2.52-11.58H49.1a43,43,0,0,1-4.78,7.76,33.88,33.88,0,0,1-5.46,5.71q-2.69,2.14-4.37,2.14c-1.23,0-2.08-.94-2.56-2.81a26.54,26.54,0,0,1-.63-6.84l.68-21a17.36,17.36,0,0,0,.08-1.85,5.37,5.37,0,0,0-.29-2,1.13,1.13,0,0,0-1.14-.68,3.64,3.64,0,0,0-2.43,1.43,12.86,12.86,0,0,0-2.35,3.7c-.34,1-.7,1.42-1.09,1.42s-.68-.33-.68-1a10.11,10.11,0,0,1,1.51-4.79,15.42,15.42,0,0,1,3.82-4.53,7.2,7.2,0,0,1,4.41-1.85A3.16,3.16,0,0,1,37,23.89a19.53,19.53,0,0,1,.84,6.38L37.77,33,37,46.81l-.08,2.77a13.59,13.59,0,0,0,.38,3.86,1.42,1.42,0,0,0,1.38,1.18q1.85,0,4.37-3.53a48.78,48.78,0,0,0,4.78-8.65,58.07,58.07,0,0,0,3.36-9.57l1.26-5.12a7.76,7.76,0,0,1,2.9-4.66,6.87,6.87,0,0,1,3.9-1.55c.45,0,.67.14.67.42a3.61,3.61,0,0,1-.29,1.17c-.2.51-.35.87-.46,1.1A31.89,31.89,0,0,0,58,28.05c-.33,1.37-.67,3-1,4.91L52.54,56.8l-.84,4.79c-.67,3.91-1.28,7-1.84,9.27a38.9,38.9,0,0,1-2.35,6.72,34.51,34.51,0,0,1-4.28,6.84,33.4,33.4,0,0,1-7.9,7.81A14.18,14.18,0,0,1,27.44,95,8.58,8.58,0,0,1,21.9,93.19Z"/><path class="cls-3" d="M68.33,58.48a23.44,23.44,0,0,1,.5-4.45l4-22.42c.22-1.45.34-2.35.34-2.68,0-.84-.26-1.26-.76-1.26q-1,0-2.43,1.59a22.8,22.8,0,0,0-3.11,5c-.22.67-.5,1-.84,1s-.5-.28-.5-.84a11.15,11.15,0,0,1,1.8-5.16,21.14,21.14,0,0,1,4.45-5.46,7.76,7.76,0,0,1,4.91-2.31q2.61,0,2.61,3.69a27.45,27.45,0,0,1-.51,4.62L74.46,54.11l-.17,1.1c0,.61.25.92.75.92.68,0,1.49-.55,2.44-1.64a24.5,24.5,0,0,0,3.1-5q.42-.93.84-.93c.34,0,.51.37.51,1.09a10.59,10.59,0,0,1-1.81,5A22.24,22.24,0,0,1,75.72,60Q73.11,62.34,71,62.34,68.32,62.34,68.33,58.48Zm6.88-42.57,1-5.87A6.47,6.47,0,0,1,78,6.3,4.9,4.9,0,0,1,81.51,5h.33c.34,0,.55.06.63.17s.1.33,0,.67l-.93,5.79a6.27,6.27,0,0,1-1.76,3.74,4.88,4.88,0,0,1-3.53,1.38H76C75.41,16.75,75.16,16.47,75.21,15.91Z"/></svg>